<?xml version="1.0" standalone="no"?>
<!DOCTYPE svg PUBLIC "-//W3C//DTD SVG 20010904//EN"
 "http://www.w3.org/TR/2001/REC-SVG-20010904/DTD/svg10.dtd">
<svg version="1.0" xmlns="http://www.w3.org/2000/svg"
 width="375.000000pt" height="375.000000pt" viewBox="0 0 375.000000 375.000000"
 preserveAspectRatio="xMidYMid meet">
<metadata>
Created by potrace 1.14, written by Peter Selinger 2001-2017
</metadata>
<g transform="translate(0.000000,375.000000) scale(0.100000,-0.100000)"
fill="#000000" stroke="none">
<path d="M1040 3656 c-96 -42 -197 -93 -233 -118 -20 -15 -26 -25 -21 -40 3
-11 49 -87 102 -169 111 -170 145 -222 382 -594 95 -148 182 -280 192 -291
l19 -22 49 21 c27 11 52 27 55 35 5 13 -72 240 -185 547 -10 28 -44 122 -75
210 -111 312 -159 440 -169 447 -18 13 -38 8 -116 -26z"/>
<path d="M2406 3659 c-7 -19 -66 -180 -130 -359 -64 -179 -163 -455 -220 -615
-57 -159 -102 -295 -99 -301 8 -21 81 -48 96 -36 11 9 136 198 172 260 6 9 26
42 46 72 160 241 529 826 526 834 -8 26 -275 158 -349 173 -24 5 -30 1 -42
-28z"/>
<path d="M1643 3632 c-28 -3 -60 -31 -49 -43 2 -2 7 -33 10 -69 4 -36 10 -99
16 -140 11 -87 18 -147 25 -210 13 -113 17 -135 27 -141 12 -7 235 -5 242 2 3
3 8 32 11 64 3 33 8 78 11 100 3 22 7 54 9 70 4 53 17 169 20 185 2 8 6 49 10
91 7 75 7 77 -16 85 -24 7 -256 12 -316 6z"/>
<path d="M360 3179 c-30 -34 -71 -83 -90 -108 -19 -25 -42 -54 -51 -64 -26
-28 -42 -65 -36 -80 4 -10 515 -332 639 -402 10 -5 68 -41 130 -80 134 -83
159 -96 170 -93 14 5 98 112 98 126 0 8 -40 53 -89 100 -49 48 -220 215 -380
372 -178 173 -301 286 -314 288 -17 2 -36 -13 -77 -59z"/>
<path d="M2521 2651 c-232 -227 -312 -311 -306 -322 29 -49 67 -87 82 -82 14
6 487 293 677 412 85 53 87 60 43 123 -55 79 -147 178 -165 178 -10 0 -158
-139 -331 -309z"/>
<path d="M1755 2702 c-46 -4 -56 -16 -50 -57 2 -16 7 -50 9 -75 3 -25 8 -70
11 -100 4 -30 8 -57 10 -59 11 -11 94 -10 103 2 9 11 17 59 28 172 2 28 7 60
9 71 8 39 -30 53 -120 46z"/>
<path d="M3515 2527 c-16 -7 -167 -60 -335 -116 -168 -57 -311 -109 -318 -116
-11 -10 -11 -21 2 -66 17 -60 27 -106 28 -129 2 -36 20 -42 100 -35 43 3 86 8
95 9 10 2 52 7 93 11 41 3 82 8 90 10 8 2 49 7 90 10 41 4 82 8 90 10 8 1 51
6 95 11 84 8 109 11 124 13 20 3 19 51 -4 160 -13 64 -32 143 -42 176 -17 55
-21 60 -48 62 -17 2 -43 -3 -60 -10z"/>
<path d="M733 2283 c-22 -15 -60 -197 -46 -220 5 -6 37 -14 73 -18 36 -3 76
-8 90 -10 14 -2 52 -6 85 -10 33 -3 80 -8 105 -11 66 -7 106 -11 191 -19 l76
-7 11 42 c6 23 8 48 6 54 -3 7 -127 54 -277 105 -320 110 -299 103 -314 94z"/>
<path d="M1801 2161 c-29 -44 -59 -82 -67 -85 -7 -3 -51 6 -96 19 -150 44
-159 32 -68 -82 33 -42 60 -81 60 -88 0 -6 -25 -47 -55 -90 -84 -121 -76 -131
64 -81 114 40 102 44 186 -61 31 -40 61 -73 66 -73 18 0 24 30 24 125 0 114
-8 105 128 151 42 15 77 30 77 35 0 19 -34 37 -111 58 -46 13 -89 27 -95 32
-5 4 -11 43 -13 86 -4 127 -4 128 -26 130 -15 2 -33 -17 -74 -76z"/>
<path d="M2375 2136 l-120 -42 2 -40 c5 -67 5 -67 91 -60 64 5 129 12 187 20
28 4 35 18 29 59 -10 64 -30 107 -51 106 -10 0 -72 -19 -138 -43z"/>
<path d="M1239 1876 c-2 -3 -38 -8 -79 -11 -41 -3 -86 -8 -100 -10 -26 -4 -83
-10 -180 -20 -30 -4 -68 -8 -85 -10 -16 -2 -61 -6 -100 -10 -38 -4 -77 -9 -85
-10 -8 -2 -49 -6 -90 -10 -41 -4 -82 -8 -90 -10 -8 -2 -49 -6 -90 -10 -41 -4
-82 -8 -90 -10 -8 -2 -49 -6 -90 -10 -105 -9 -107 -13 -86 -127 29 -154 61
-248 84 -248 14 0 286 91 906 304 137 47 253 89 259 95 6 6 5 25 -4 53 -12 37
-18 43 -44 46 -17 2 -33 1 -36 -2z"/>
<path d="M2273 1868 c-19 -22 -26 -83 -11 -95 7 -6 114 -44 238 -86 124 -41
380 -128 569 -193 259 -88 348 -115 360 -107 19 12 46 96 72 226 22 112 17
136 -31 138 -17 1 -33 2 -37 3 -5 1 -48 6 -98 10 -49 5 -97 9 -105 11 -8 1
-42 6 -75 9 -33 4 -80 9 -105 12 -25 2 -61 7 -80 9 -19 3 -62 7 -95 10 -33 3
-76 8 -95 10 -65 9 -158 19 -275 30 -27 3 -63 7 -80 9 -122 17 -141 17 -152 4z"/>
<path d="M2241 1575 c-29 -39 -32 -47 -20 -62 15 -18 257 -257 479 -472 78
-76 143 -131 154 -131 20 0 60 40 129 130 23 30 48 61 55 69 7 7 12 23 10 35
-3 21 -19 31 -590 380 -86 53 -163 96 -170 96 -7 0 -28 -21 -47 -45z"/>
<path d="M1527 1517 c-14 -10 -174 -253 -409 -621 -126 -197 -122 -190 -114
-211 6 -15 209 -118 258 -130 33 -8 35 -5 92 158 24 67 94 262 155 433 61 171
111 318 111 327 0 9 -17 25 -39 36 -31 16 -42 18 -54 8z"/>
<path d="M874 1373 c-132 -80 -340 -208 -464 -284 -124 -75 -226 -144 -228
-153 -7 -32 221 -316 253 -316 11 0 85 70 509 484 152 148 276 276 276 283 0
15 -75 114 -95 125 -7 5 -106 -50 -251 -139z"/>
<path d="M1734 1355 c-13 -10 -17 -27 -29 -130 -3 -27 -8 -70 -11 -95 -11 -94
-13 -107 -19 -165 -3 -33 -8 -76 -11 -95 -3 -19 -7 -60 -10 -90 -3 -30 -7 -66
-9 -80 -2 -14 -7 -54 -10 -90 -4 -36 -9 -72 -10 -80 -3 -16 -14 -108 -21 -180
-2 -25 -6 -58 -8 -75 -2 -16 -7 -67 -11 -112 -7 -76 -6 -83 11 -90 25 -10 340
-9 377 0 l29 8 -7 67 c-3 37 -8 78 -10 92 -2 14 -6 52 -10 85 -7 73 -15 141
-20 175 -2 14 -7 57 -10 95 -4 39 -8 77 -10 85 -3 8 -7 42 -10 76 -3 33 -7 69
-9 80 -2 10 -7 53 -11 94 -4 41 -9 82 -10 90 -2 9 -6 47 -9 85 -4 39 -8 81
-11 95 -2 14 -7 52 -10 85 -4 33 -10 64 -15 69 -13 13 -100 13 -116 1z"/>
<path d="M2118 1239 c-40 -20 -58 -35 -58 -48 0 -10 20 -74 44 -142 210 -588
250 -696 261 -707 10 -11 24 -9 81 13 104 41 243 115 254 135 7 13 0 32 -29
76 -66 102 -242 377 -276 429 -145 229 -178 275 -199 274 -11 -1 -47 -14 -78
-30z"/>
</g>
</svg>
